<svg width="192" height="53" viewBox="0 0 192 53" fill="none" xmlns="http://www.w3.org/2000/svg">
<g clip-path="url(#clip0_1961_54)" filter="url(#filter0_d_1961_54)">
<path d="M7.22466 38.9095L4 44.9612V11.9871C4 5.35345 9.36149 0 16.0051 0H48.9899C39.6267 2.90948 29.875 9.46552 23.4257 16.9526C16.3159 25.1379 12.3142 30.7629 7.22466 38.9095Z" fill="white"/>
<path d="M49.0684 0C49.0684 0 34.6934 6.71121 30.3032 16.7974C27.9721 22.1897 27.3893 28.6681 23.1545 32.7414C20.2407 35.5345 16.1613 36.5819 12.587 38.4052C10.2559 39.6078 5.90454 42.4784 4.03967 45.0388H37.0633C43.7069 45.0388 49.0684 39.6853 49.0684 33.0517V0ZM65.7356 23.5474V15.0129C65.7356 14.819 65.891 14.6638 66.0853 14.6638H71.4856C72.4957 14.6638 73.3505 15.0905 73.3505 16.5259V23.2759C73.3505 24.3233 72.4957 25.1379 71.4856 25.1379H67.2508C66.4349 25.0216 65.7745 24.3621 65.7356 23.5474V23.5474ZM63.9873 12.0647C63.4045 12.0647 62.9772 12.4914 62.9772 13.0345V35.3793H65.3471C65.5414 35.3793 65.6968 35.2241 65.6968 35.0302V26.7284C66.0853 27.2328 66.8623 27.7371 67.8336 27.7371H71.4468C73.9721 27.7371 76.0312 25.9526 76.0312 23.3147V16.4871C76.0312 13.3836 73.9721 12.0647 71.4468 12.0647H63.9873V12.0647ZM79.9163 12.0647V27.3879C79.9163 27.5819 80.0718 27.7371 80.266 27.7371H82.6359V12.375C82.6359 12.181 82.4805 12.0647 82.2863 12.0647H79.9163V12.0647ZM79.9163 5.0431V7.60345C79.9163 7.79741 80.0718 7.95259 80.266 7.95259H82.6359V5.39224C82.6359 5.19828 82.4805 5.0431 82.2863 5.0431H79.9163ZM89.3184 18.194V16.4871C89.3184 15.2457 90.1343 14.625 91.1832 14.625H95.4957C96.739 14.625 97.3218 15.2069 97.3218 16.4871V18.194C97.3218 18.3879 97.1664 18.5431 96.9721 18.5431H89.668C89.4349 18.5043 89.3184 18.3491 89.3184 18.194V18.194ZM91.1832 12.0647C88.6579 12.0647 86.5988 13.6164 86.5988 16.5259V23.1595C86.5988 25.681 88.6191 27.7371 91.1832 27.7371H99.3032V25.4871C99.3032 25.2931 99.1478 25.1379 98.9535 25.1379H91.1832C90.1343 25.1379 89.3184 24.3233 89.3184 23.2759V20.4828C89.5903 20.8707 90.0566 21.0647 90.5616 21.0647H99.1478C99.8859 21.0647 99.9636 20.6379 99.9636 20.0948V16.4871C99.9636 13.5776 97.9434 12.0259 95.3792 12.0259H91.1832V12.0647ZM106.258 23.2759V16.5259C106.258 15.4784 107.073 14.6638 108.122 14.6638H112.357C113.134 14.7414 113.795 15.4009 113.872 16.2543V24.7888C113.872 24.9828 113.717 25.0991 113.523 25.0991H108.122C107.073 25.1379 106.258 24.3233 106.258 23.2759ZM114.183 4.22845C113.989 4.22845 113.834 4.38362 113.834 4.57759V13.0733C113.445 12.5302 112.668 12.0647 111.658 12.0647H108.006C105.481 12.0647 103.499 14.0819 103.499 16.6422V23.1595C103.499 25.681 105.519 27.7371 108.084 27.7371H115.543C116.126 27.7371 116.553 27.3103 116.553 26.7284V4.22845H114.183V4.22845ZM124.557 23.5474V15.0129C124.557 14.819 124.712 14.6638 124.906 14.6638H130.268C131.278 14.6638 132.133 15.0905 132.133 16.5259V23.2759C132.133 24.3233 131.278 25.1379 130.268 25.1379H126.033C125.217 25.0216 124.595 24.3621 124.557 23.5474V23.5474ZM122.808 12.0647C122.225 12.0647 121.798 12.4914 121.798 13.0345V35.3793H124.168C124.362 35.3793 124.518 35.2241 124.518 35.0302V26.7284C124.906 27.2328 125.683 27.7371 126.655 27.7371H130.268C132.793 27.7371 134.852 25.9526 134.852 23.3147V16.4871C134.852 13.3836 132.793 12.0647 130.268 12.0647H122.808V12.0647ZM138.737 12.0647V27.3879C138.737 27.5819 138.893 27.7371 139.087 27.7371H141.457V12.375C141.457 12.181 141.301 12.0647 141.107 12.0647H138.737V12.0647ZM138.737 5.0431V7.60345C138.737 7.79741 138.893 7.95259 139.087 7.95259H141.457V5.39224C141.457 5.19828 141.301 5.0431 141.107 5.0431H138.737ZM148.217 23.5474V15.0129C148.217 14.819 148.372 14.6638 148.567 14.6638H153.967C154.977 14.6638 155.832 15.0905 155.832 16.5259V23.2759C155.832 24.3233 154.977 25.1379 153.967 25.1379H149.732C148.916 25.0216 148.295 24.3621 148.217 23.5474V23.5474ZM146.508 12.0647C145.925 12.0647 145.497 12.4914 145.497 13.0345V35.3793H147.867C148.062 35.3793 148.217 35.2241 148.217 35.0302V26.7284C148.606 27.2328 149.383 27.7371 150.354 27.7371H153.967C156.492 27.7371 158.551 25.9526 158.551 23.3147V16.4871C158.551 13.3836 156.492 12.0647 153.967 12.0647H146.508V12.0647ZM165.04 18.194V16.4871C165.04 15.2457 165.856 14.625 166.905 14.625H171.217C172.421 14.625 173.043 15.2069 173.043 16.4871V18.194C173.043 18.3879 172.888 18.5431 172.693 18.5431H165.389C165.156 18.5043 165.04 18.3491 165.04 18.194V18.194ZM166.905 12.0647C164.379 12.0647 162.32 13.6164 162.32 16.5259V23.1595C162.32 25.681 164.34 27.7371 166.905 27.7371H175.024V25.4871C175.024 25.2931 174.869 25.1379 174.675 25.1379H166.905C165.856 25.1379 165.04 24.3233 165.04 23.2759V20.4828C165.312 20.8707 165.778 21.0647 166.244 21.0647H174.83C175.568 21.0647 175.646 20.6379 175.646 20.0948V16.4871C175.646 13.5776 173.626 12.0259 171.062 12.0259H166.905V12.0647ZM184.349 12.0647C183.377 12.0647 182.6 12.5302 182.212 13.0733V12.375C182.212 12.181 182.057 12.0647 181.862 12.0647H179.492V27.3879C179.492 27.5819 179.648 27.7371 179.842 27.7371H182.212V16.0991C182.29 15.3621 182.872 14.7026 183.727 14.7026H187.651C187.845 14.7026 188.001 14.5474 188.001 14.3534V12.1034H184.349V12.0647Z" fill="white"/>
</g>
<defs>
<filter id="filter0_d_1961_54" x="0" y="0" width="192" height="53" filterUnits="userSpaceOnUse" color-interpolation-filters="sRGB">
<feFlood flood-opacity="0" result="BackgroundImageFix"/>
<feColorMatrix in="SourceAlpha" type="matrix" values="0 0 0 0 0 0 0 0 0 0 0 0 0 0 0 0 0 0 127 0" result="hardAlpha"/>
<feOffset dy="4"/>
<feGaussianBlur stdDeviation="2"/>
<feComposite in2="hardAlpha" operator="out"/>
<feColorMatrix type="matrix" values="0 0 0 0 0 0 0 0 0 0 0 0 0 0 0 0 0 0 0.25 0"/>
<feBlend mode="normal" in2="BackgroundImageFix" result="effect1_dropShadow_1961_54"/>
<feBlend mode="normal" in="SourceGraphic" in2="effect1_dropShadow_1961_54" result="shape"/>
</filter>
<clipPath id="clip0_1961_54">
<rect width="184" height="45" fill="white" transform="translate(4)"/>
</clipPath>
</defs>
</svg>
